<svg id="Capa_1" enable-background="new 0 0 512 512" height="512" viewBox="0 0 512 512" width="512" xmlns="http://www.w3.org/2000/svg"><g><path d="m350.078 140.196 67.019-38.508c12.372-7.109 20-20.289 20-34.558v-10.269c0-4.154-3.367-7.521-7.521-7.521h-79.497v90.856z" fill="#b9d4e2"/><path d="m350.078 241.996 67.019-38.508c12.372-7.109 20-20.289 20-34.558v-10.268c0-4.154-3.367-7.521-7.521-7.521h-79.497v90.855z" fill="#b9d4e2"/><path d="m350.078 343.797 67.019-38.508c12.372-7.109 20-20.289 20-34.558v-10.269c0-4.154-3.367-7.521-7.521-7.521h-79.497v90.856z" fill="#b9d4e2"/><path d="m350.078 445.597 67.019-38.508c12.372-7.109 20-20.289 20-34.558v-10.268c0-4.154-3.367-7.521-7.521-7.521h-79.497v90.855z" fill="#b9d4e2"/><path d="m429.575 49.34h-30c4.154 0 7.521 3.367 7.521 7.521v10.269c0 14.269-7.628 27.449-19.999 34.558l-37.019 21.271v17.238l67.019-38.508c12.372-7.109 19.999-20.289 19.999-34.558v-10.27c0-4.153-3.367-7.521-7.521-7.521z" fill="#9ecbe2"/><path d="m429.575 151.141h-30c4.154 0 7.521 3.367 7.521 7.521v10.268c0 14.269-7.628 27.449-19.999 34.558l-37.019 21.271v17.238l67.019-38.508c12.372-7.109 19.999-20.289 19.999-34.558v-10.268c0-4.155-3.367-7.522-7.521-7.522z" fill="#9ecbe2"/><path d="m429.575 252.941h-30c4.154 0 7.521 3.367 7.521 7.521v10.269c0 14.269-7.628 27.449-19.999 34.558l-37.019 21.271v17.238l67.019-38.508c12.372-7.109 19.999-20.289 19.999-34.558v-10.269c0-4.154-3.367-7.522-7.521-7.522z" fill="#9ecbe2"/><path d="m429.575 354.742h-30c4.154 0 7.521 3.367 7.521 7.521v10.268c0 14.269-7.628 27.449-19.999 34.558l-37.019 21.271v17.238l67.019-38.508c12.372-7.109 19.999-20.289 19.999-34.558v-10.268c0-4.155-3.367-7.522-7.521-7.522z" fill="#9ecbe2"/><path d="m161.922 140.196-67.019-38.508c-12.372-7.109-20-20.289-20-34.558v-10.269c0-4.154 3.367-7.521 7.521-7.521h79.497v90.856z" fill="#b9d4e2"/><path d="m161.922 241.996-67.019-38.508c-12.372-7.109-20-20.289-20-34.558v-10.268c0-4.154 3.367-7.521 7.521-7.521h79.497v90.855z" fill="#b9d4e2"/><path d="m161.922 343.797-67.019-38.508c-12.372-7.109-20-20.289-20-34.558v-10.269c0-4.154 3.367-7.521 7.521-7.521h79.497v90.856z" fill="#b9d4e2"/><path d="m161.922 445.597-67.019-38.508c-12.372-7.109-20-20.289-20-34.558v-10.268c0-4.154 3.367-7.521 7.521-7.521h79.497v90.855z" fill="#b9d4e2"/><path d="m142.916 7.5c-4.08 0-7.387 3.307-7.387 7.387v489.613h240.942v-489.613c0-4.08-3.307-7.387-7.387-7.387z" fill="#f9eed7"/><g fill="#fefaf4"><path d="m331.214 85.02h-150.429c-2.324 0-4.208-1.884-4.208-4.208v-26.387c0-2.324 1.884-4.208 4.208-4.208h150.429c2.324 0 4.208 1.884 4.208 4.208v26.387c0 2.324-1.884 4.208-4.208 4.208z"/><path d="m331.214 158.196h-150.429c-2.324 0-4.208-1.884-4.208-4.208v-26.387c0-2.324 1.884-4.208 4.208-4.208h150.429c2.324 0 4.208 1.884 4.208 4.208v26.387c0 2.324-1.884 4.208-4.208 4.208z"/><path d="m331.214 231.372h-150.429c-2.324 0-4.208-1.884-4.208-4.208v-26.387c0-2.324 1.884-4.208 4.208-4.208h150.429c2.324 0 4.208 1.884 4.208 4.208v26.387c0 2.324-1.884 4.208-4.208 4.208z"/><path d="m331.214 304.547h-150.429c-2.324 0-4.208-1.884-4.208-4.208v-26.387c0-2.324 1.884-4.208 4.208-4.208h150.429c2.324 0 4.208 1.884 4.208 4.208v26.387c0 2.324-1.884 4.208-4.208 4.208z"/><path d="m331.214 377.723h-150.429c-2.324 0-4.208-1.884-4.208-4.208v-26.387c0-2.324 1.884-4.208 4.208-4.208h150.429c2.324 0 4.208 1.884 4.208 4.208v26.387c0 2.324-1.884 4.208-4.208 4.208z"/></g><path d="m335.422 504.5h-158.845v-86.715c0-2.324 1.884-4.208 4.208-4.208h150.429c2.324 0 4.208 1.884 4.208 4.208z" fill="#b9d4e2"/><path d="m369.083 7.5h-30c4.08 0 7.387 3.307 7.387 7.387v489.613h30v-489.613c.001-4.08-3.307-7.387-7.387-7.387z" fill="#f2e4c8"/><path d="m331.214 50.217h-30c2.324 0 4.208 1.884 4.208 4.208v26.387c0 2.324-1.884 4.208-4.208 4.208h30c2.324 0 4.208-1.884 4.208-4.208v-26.387c0-2.324-1.884-4.208-4.208-4.208z" fill="#e7e7e7"/><path d="m331.214 123.393h-30c2.324 0 4.208 1.884 4.208 4.208v26.387c0 2.324-1.884 4.208-4.208 4.208h30c2.324 0 4.208-1.884 4.208-4.208v-26.387c0-2.324-1.884-4.208-4.208-4.208z" fill="#e7e7e7"/><path d="m331.214 196.569h-30c2.324 0 4.208 1.884 4.208 4.208v26.387c0 2.324-1.884 4.208-4.208 4.208h30c2.324 0 4.208-1.884 4.208-4.208v-26.387c0-2.324-1.884-4.208-4.208-4.208z" fill="#e7e7e7"/><path d="m331.214 269.744h-30c2.324 0 4.208 1.884 4.208 4.208v26.387c0 2.324-1.884 4.208-4.208 4.208h30c2.324 0 4.208-1.884 4.208-4.208v-26.387c0-2.324-1.884-4.208-4.208-4.208z" fill="#e7e7e7"/><path d="m331.214 342.92h-30c2.324 0 4.208 1.884 4.208 4.208v26.387c0 2.324-1.884 4.208-4.208 4.208h30c2.324 0 4.208-1.884 4.208-4.208v-26.387c0-2.324-1.884-4.208-4.208-4.208z" fill="#e7e7e7"/><path d="m331.214 413.577h-30c2.324 0 4.208 1.884 4.208 4.208v86.715h30v-86.715c0-2.324-1.884-4.208-4.208-4.208z" fill="#9ecbe2"/><g><path d="m420.832 108.19c14.658-8.422 23.764-24.156 23.764-41.061v-10.267c0-8.283-6.738-15.021-15.021-15.021h-45.604v-26.954c0-8.209-6.678-14.887-14.888-14.887h-226.166c-8.209 0-14.888 6.678-14.888 14.887v26.953h-45.605c-8.282 0-15.021 6.739-15.021 15.021v10.269c0 16.905 9.105 32.638 23.763 41.061l36.862 21.181v14.27h-45.604c-8.282 0-15.021 6.738-15.021 15.021v10.269c0 16.905 9.105 32.638 23.763 41.061l36.862 21.181v14.27h-45.604c-8.282 0-15.021 6.738-15.021 15.021v10.269c0 16.905 9.105 32.638 23.763 41.061l36.862 21.181v14.27h-45.604c-8.282 0-15.021 6.738-15.021 15.021v10.268c0 16.905 9.105 32.638 23.763 41.061l36.862 21.181v62.223h-14.756c-4.143 0-7.5 3.358-7.5 7.5s3.357 7.5 7.5 7.5h285.454c4.143 0 7.5-3.358 7.5-7.5s-3.357-7.5-7.5-7.5h-14.756v-62.228l36.861-21.18c14.658-8.422 23.764-24.156 23.764-41.061v-10.268c0-8.283-6.738-15.021-15.021-15.021h-45.604v-14.27l36.861-21.18c14.658-8.422 23.764-24.156 23.764-41.061v-10.269c0-8.283-6.738-15.021-15.021-15.021h-45.604v-14.27l36.861-21.18c14.658-8.422 23.764-24.156 23.764-41.061v-10.269c0-8.283-6.738-15.021-15.021-15.021h-45.604v-14.27zm8.764-51.328v10.268c0 11.55-6.222 22.3-16.236 28.055l-29.389 16.886v-55.229zm-330.957 38.323c-10.015-5.755-16.235-16.505-16.235-28.055l.021-10.29h45.604v55.231zm0 101.8c-10.014-5.755-16.235-16.505-16.235-28.055l.021-10.29h45.604v55.231zm0 101.8c-10.015-5.754-16.235-16.504-16.235-28.055l.021-10.29h45.604v55.231zm0 101.801c-10.015-5.754-16.235-16.504-16.235-28.055l.021-10.289h45.604v55.231zm85.439 96.414v-75.923h64.422v75.923zm79.422 0v-75.923h64.423v75.923zm79.422 0v-79.215c0-6.456-5.252-11.708-11.708-11.708h-150.428c-6.456 0-11.708 5.252-11.708 11.708v79.215h-26.049v-482h225.942v482zm86.674-134.737v10.268c0 11.55-6.222 22.3-16.236 28.055l-29.389 16.887v-55.228zm0-101.801v10.269c0 11.55-6.222 22.3-16.236 28.055l-29.389 16.886v-55.228zm0-101.8v10.269c0 11.55-6.222 22.3-16.236 28.055l-29.389 16.886v-55.228z"/><path d="m331.214 42.717h-150.428c-6.456 0-11.708 5.252-11.708 11.708v26.387c0 6.456 5.252 11.708 11.708 11.708h8.415c4.143 0 7.5-3.358 7.5-7.5s-3.357-7.5-7.5-7.5h-5.123v-19.803h143.845v19.803h-108.722c-4.143 0-7.5 3.358-7.5 7.5s3.357 7.5 7.5 7.5h112.014c6.456 0 11.708-5.252 11.708-11.708v-26.387c-.001-6.455-5.253-11.708-11.709-11.708z"/><path d="m331.214 115.893h-150.428c-6.456 0-11.708 5.252-11.708 11.708v26.387c0 6.456 5.252 11.708 11.708 11.708h150.429c6.456 0 11.708-5.252 11.708-11.708v-26.387c-.001-6.456-5.253-11.708-11.709-11.708zm-3.292 34.803h-143.844v-19.803h143.845v19.803z"/><path d="m331.214 189.069h-150.428c-6.456 0-11.708 5.252-11.708 11.708v26.387c0 6.456 5.252 11.708 11.708 11.708h67.018c4.143 0 7.5-3.358 7.5-7.5s-3.357-7.5-7.5-7.5h-63.726v-19.803h143.845v19.803h-50.119c-4.143 0-7.5 3.358-7.5 7.5s3.357 7.5 7.5 7.5h53.411c6.456 0 11.708-5.252 11.708-11.708v-26.387c-.001-6.456-5.253-11.708-11.709-11.708z"/><path d="m331.214 262.244h-150.428c-6.456 0-11.708 5.252-11.708 11.708v26.387c0 6.456 5.252 11.708 11.708 11.708h150.429c6.456 0 11.708-5.252 11.708-11.708v-26.387c-.001-6.455-5.253-11.708-11.709-11.708zm-3.292 34.803h-143.844v-19.803h143.845v19.803z"/><path d="m331.214 335.42h-150.428c-6.456 0-11.708 5.252-11.708 11.708v26.387c0 6.456 5.252 11.708 11.708 11.708h150.429c6.456 0 11.708-5.252 11.708-11.708v-26.387c-.001-6.456-5.253-11.708-11.709-11.708zm-3.292 34.803h-143.844v-19.803h143.845v19.803z"/></g></g></svg>