<svg id="Capa_1" enable-background="new 0 0 512 512" height="512" viewBox="0 0 512 512" width="512" xmlns="http://www.w3.org/2000/svg"><g><path d="m499.749 458.162h-487.498c-2.624 0-4.751-2.127-4.751-4.751v-28.108c0-2.624 2.127-4.751 4.751-4.751h487.498c2.624 0 4.751 2.127 4.751 4.751v28.108c0 2.624-2.127 4.751-4.751 4.751z" fill="#ae6834"/><path d="m478.929 420.776h-445.872v-42.937l223.225-353.404 222.647 353.404z" fill="#d88a55"/><path d="m256.282 24.435-24.982 39.551 212.085 336.639c2.969 4.713 4.545 10.17 4.545 15.74v4.411h31v-42.937z" fill="#bf7642"/><g fill="#804e2b"><path d="m30.505 394.129-11.056-6.984c-4.386-2.771-5.696-8.572-2.925-12.958l226.292-358.26c2.919-4.621 8.004-7.424 13.47-7.424h.009c5.47.003 10.555 2.812 13.471 7.439l225.703 358.254c2.765 4.389 1.449 10.189-2.94 12.955l-11.065 6.971c-4.389 2.765-10.19 1.449-12.955-2.941l-212.241-336.885-212.804 336.907c-2.771 4.386-8.573 5.696-12.959 2.926z"/><path d="m121.775 503.497h-27.159c-3.326 0-6.022-2.696-6.022-6.022v-39.314h39.202v39.314c.001 3.326-2.695 6.022-6.021 6.022z"/><path d="m220.311 503.497h-27.159c-3.326 0-6.022-2.696-6.022-6.022v-39.314h39.202v39.314c.001 3.326-2.695 6.022-6.021 6.022z"/><path d="m318.847 503.497h-27.159c-3.326 0-6.022-2.696-6.022-6.022v-39.314h39.202v39.314c.001 3.326-2.695 6.022-6.021 6.022z"/><path d="m417.383 503.497h-27.159c-3.326 0-6.022-2.696-6.022-6.022v-39.314h39.202v39.314c.001 3.326-2.695 6.022-6.021 6.022z"/></g><path d="m169.659 383.626h-44.34c-2.144 0-3.882-1.738-3.882-3.882v-44.34c0-2.144 1.738-3.881 3.882-3.881h44.34c2.144 0 3.881 1.738 3.881 3.881v44.34c0 2.144-1.738 3.882-3.881 3.882z" fill="#ffdf8e"/><path d="m169.659 331.523h-30c2.144 0 3.881 1.738 3.881 3.882v44.34c0 2.144-1.738 3.881-3.881 3.881h30c2.144 0 3.881-1.738 3.881-3.881v-44.34c0-2.145-1.738-3.882-3.881-3.882z" fill="#ffcd75"/><path d="m388.343 383.626h-44.34c-2.144 0-3.881-1.738-3.881-3.882v-44.34c0-2.144 1.738-3.881 3.881-3.881h44.34c2.144 0 3.882 1.738 3.882 3.881v44.34c-.001 2.144-1.738 3.882-3.882 3.882z" fill="#ffdf8e"/><path d="m298.607 420.823h-85.228v-160.251c0-2.525 2.047-4.572 4.572-4.572h76.084c2.525 0 4.572 2.047 4.572 4.572z" fill="#ffcd75"/><path d="m294.035 256h-25.428v123.265c0 10.249-8.309 18.558-18.558 18.558h-36.67v23h85.228v-160.251c0-2.525-2.047-4.572-4.572-4.572z" fill="#ffc069"/><path d="m388.343 331.523h-30c2.144 0 3.881 1.738 3.881 3.882v44.34c0 2.144-1.738 3.881-3.881 3.881h30c2.144 0 3.881-1.738 3.881-3.881v-44.34c0-2.145-1.737-3.882-3.881-3.882z" fill="#ffcd75"/><g><path d="m499.749 413.052h-12.892c-.043-2.286-.73-10.971-.735-13.001l10.404-6.555c7.881-4.966 10.253-15.418 5.288-23.298l-225.703-358.254c-4.314-6.846-11.72-10.937-19.826-10.941-8.086 0-15.493 4.082-19.811 10.918l-119.431 189.082c-2.212 3.502-1.166 8.134 2.335 10.346 3.503 2.213 8.136 1.165 10.346-2.335l119.432-189.082c1.554-2.46 4.219-3.929 7.134-3.929 2.913.002 5.578 1.474 7.13 3.938l225.703 358.254c.557.883.291 2.055-.593 2.611l-11.064 6.971c-.548.345-1.079.325-1.429.245-.349-.079-.837-.289-1.183-.837l-212.24-336.887c-1.373-2.178-3.767-3.5-6.341-3.502-.002 0-.003 0-.004 0-2.573 0-4.967 1.319-6.341 3.495l-212.805 336.907c-.347.548-.836.757-1.184.836-.35.078-.88.1-1.428-.246l-11.057-6.984c-.548-.346-.757-.835-.836-1.184s-.1-.88.246-1.428l88.455-140.04c2.212-3.502 1.166-8.134-2.335-10.346-3.502-2.212-8.134-1.166-10.346 2.335l-88.455 140.04c-2.41 3.815-3.19 8.34-2.196 12.742s3.642 8.153 7.457 10.563l10.114 6.388v13.178h-13.307c-6.755 0-12.251 5.496-12.251 12.251v28.107c0 6.755 5.496 12.251 12.251 12.251h68.844v31.814c0 7.456 6.066 13.522 13.522 13.522h27.159c7.456 0 13.522-6.066 13.522-13.522v-31.814h44.334v31.814c0 7.456 6.066 13.522 13.522 13.522h27.159c7.456 0 13.522-6.066 13.522-13.522v-31.814h44.334v31.814c0 7.456 6.066 13.522 13.522 13.522h27.159c7.456 0 13.522-6.066 13.522-13.522v-31.814h44.333v31.814c0 7.456 6.066 13.522 13.522 13.522h27.159c7.456 0 13.522-6.066 13.522-13.522v-31.814h68.844c6.755 0 12.251-5.496 12.251-12.251v-28.107c-.003-6.755-5.499-12.251-12.254-12.251zm-300.463-254.498 39.667 38.955h-64.273zm64.489-78.272 41.197 65.391-41.197 40.458zm-15 105.849-41.294-40.553 41.294-65.375zm64.38-27.47 24.474 38.847h-64.031zm-192.858 337.337h-24.203v-30.336h24.203zm98.536 0h-24.203v-30.336h24.203zm98.536 0h-24.203v-30.336h24.203zm98.536 0h-24.203v-30.336h24.203zm81.095-45.336h-482v-22.609h355.968c4.142 0 7.5-3.358 7.5-7.5s-3.358-7.5-7.5-7.5h-64.861v-152.48c0-6.656-5.415-12.072-12.072-12.072h-76.084c-6.657 0-12.072 5.416-12.072 12.072v152.48h-165.322v-10.752c3.829-1.19 7.082-3.664 9.247-7.092l115.401-182.7h181.873l115.084 182.671c2.117 3.362 5.277 5.817 9.005 7.038.072 1.831.646 9.092.689 10.835h-70.89c-4.142 0-7.5 3.358-7.5 7.5s3.358 7.5 7.5 7.5h96.034zm-205.893-125.832h-70.228v-27.194h70.228zm-70.228 15h70.228v27.194h-70.228zm70.228-57.194h-70.228v-19.136h70.228zm-70.228 99.387h70.228v31.029h-70.228z"/><path d="m169.659 324.023h-44.341c-6.276 0-11.381 5.105-11.381 11.381v44.34c0 6.276 5.105 11.381 11.381 11.381h44.341c6.276 0 11.381-5.105 11.381-11.381v-44.34c0-6.276-5.105-11.381-11.381-11.381zm-3.619 52.103h-37.103v-37.103h37.103z"/><path d="m399.725 379.745v-44.34c0-6.276-5.106-11.381-11.382-11.381h-44.34c-6.276 0-11.381 5.105-11.381 11.381v44.34c0 6.276 5.105 11.381 11.381 11.381h44.34c6.276 0 11.382-5.105 11.382-11.381zm-15-3.619h-37.103v-37.103h37.103z"/></g></g></svg>