<svg id="Capa_1" enable-background="new 0 0 512 512" height="512" viewBox="0 0 512 512" width="512" xmlns="http://www.w3.org/2000/svg"><g><path d="m355.093 264.018v214.024h-198.185v-214.024" fill="#ffdf8e"/><path d="m325.093 264.018h30v214.023h-30z" fill="#ffcd75"/><path d="m156.908 96.196h198.185v130.732h-198.185z" fill="#ffdf8e"/><path d="m325.093 96.196h30v130.732h-30z" fill="#ffcd75"/><path d="m390.008 183.214v-21.6c0-2.134 1.73-3.863 3.863-3.863h22.498c2.134 0 3.863 1.73 3.863 3.863v21.6c0 .801.65 1.451 1.451 1.451h29.608c.801 0 1.451-.65 1.451-1.451v-21.6c0-2.134 1.73-3.863 3.863-3.863h22.498c2.134 0 3.863 1.73 3.863 3.863v316.427h-127.684v-293.376h33.275c.801 0 1.451-.649 1.451-1.451z" fill="#ffc069"/><path d="m479.103 157.751h-22.498c-1.827 0-3.349 1.272-3.751 2.976.068.286.112.58.112.887v316.427h30v-316.426c0-2.134-1.73-3.864-3.863-3.864z" fill="#e6a85e"/><path d="m409.463 296.649h33.105c3.275 0 5.929-2.655 5.929-5.929v-44.81c0-3.275-2.655-5.929-5.929-5.929h-33.105c-3.275 0-5.929 2.655-5.929 5.929v44.81c-.001 3.274 2.654 5.929 5.929 5.929z" fill="#b5703e"/><path d="m409.463 405.167h33.105c3.275 0 5.929-2.655 5.929-5.929v-44.81c0-3.275-2.655-5.929-5.929-5.929h-33.105c-3.275 0-5.929 2.655-5.929 5.929v44.81c-.001 3.274 2.654 5.929 5.929 5.929z" fill="#b5703e"/><path d="m122.394 183.214v-21.6c0-2.134-1.73-3.863-3.863-3.863h-22.498c-2.134 0-3.863 1.73-3.863 3.863v21.6c0 .801-.65 1.451-1.451 1.451h-29.608c-.801 0-1.451-.65-1.451-1.451v-21.6c0-2.134-1.73-3.863-3.863-3.863h-22.498c-2.134 0-3.863 1.73-3.863 3.863v316.427h127.683v-293.376h-33.275c-.801 0-1.45-.649-1.45-1.451z" fill="#ffc069"/><path d="m102.939 296.649h-33.105c-3.275 0-5.929-2.655-5.929-5.929v-44.81c0-3.275 2.655-5.929 5.929-5.929h33.105c3.275 0 5.929 2.655 5.929 5.929v44.81c0 3.274-2.655 5.929-5.929 5.929z" fill="#b5703e"/><path d="m102.939 405.167h-33.105c-3.275 0-5.929-2.655-5.929-5.929v-44.81c0-3.275 2.655-5.929 5.929-5.929h33.105c3.275 0 5.929 2.655 5.929 5.929v44.81c0 3.274-2.655 5.929-5.929 5.929z" fill="#b5703e"/><path d="m156.908 65.721h198.246v45.126h-198.246z" fill="#f7b565"/><path d="m325.154 65.721h30v45.126h-30z" fill="#e6a85e"/><path d="m156.908 139.056-42.564-16.896c-4.721-1.874-7.821-6.439-7.821-11.519v-45.636h50.385z" fill="#b5703e"/><path d="m156.908 65.721v-15.874c0-9.351-7.581-16.931-16.931-16.931h-16.522c-9.351 0-16.931 7.581-16.931 16.931v15.874z" fill="#f7b565"/><path d="m355.093 139.056 42.564-16.896c4.721-1.874 7.821-6.439 7.821-11.519v-45.636h-50.385z" fill="#b5703e"/><path d="m355.093 65.721v-15.874c0-9.351 7.581-16.931 16.931-16.931h16.522c9.351 0 16.931 7.581 16.931 16.931v15.874z" fill="#f7b565"/><path d="m238.34 221.801h-46.948v-54.862c0-12.964 10.51-23.474 23.474-23.474 12.964 0 23.474 10.51 23.474 23.474z" fill="#b5703e"/><path d="m320.608 221.801h-46.948v-54.862c0-12.964 10.51-23.474 23.474-23.474 12.964 0 23.474 10.51 23.474 23.474z" fill="#b5703e"/><path d="m306.37 478.042h-100.74v-109.254c0-27.818 22.551-50.37 50.37-50.37 27.818 0 50.37 22.551 50.37 50.37z" fill="#ae6834"/><path d="m256 318.418c-5.224 0-10.262.796-15 2.272 20.493 6.384 35.37 25.504 35.37 48.098v109.254h30v-109.255c0-27.818-22.551-50.369-50.37-50.369z" fill="#9e5e2f"/><path d="m359.468 223.664h-206.936c-3.717 0-6.731 3.014-6.731 6.731v24.032c0 3.717 3.013 6.731 6.731 6.731h206.936c3.717 0 6.731-3.013 6.731-6.731v-24.032c0-3.717-3.014-6.731-6.731-6.731z" fill="#ae6834"/><path d="m359.468 223.664h-30c3.717 0 6.731 3.013 6.731 6.731v24.032c0 3.717-3.013 6.731-6.731 6.731h30c3.717 0 6.731-3.013 6.731-6.731v-24.032c0-3.717-3.013-6.731-6.731-6.731z" fill="#9e5e2f"/><g><path d="m455.997 245.909c0-7.405-6.024-13.429-13.43-13.429h-33.105c-7.405 0-13.43 6.025-13.43 13.429v44.81c0 7.405 6.024 13.43 13.43 13.43h33.105c7.405 0 13.43-6.024 13.43-13.43zm-15 43.24h-29.964v-41.669h29.964z"/><path d="m442.567 340.998h-33.105c-7.405 0-13.43 6.024-13.43 13.429v44.81c0 7.405 6.024 13.429 13.43 13.429h33.105c7.405 0 13.43-6.024 13.43-13.429v-44.81c0-7.404-6.024-13.429-13.43-13.429zm-1.57 56.668h-29.964v-41.668h29.964z"/><path d="m69.834 304.149h33.104c7.405 0 13.43-6.024 13.43-13.43v-44.81c0-7.405-6.024-13.429-13.43-13.429h-33.104c-7.405 0-13.43 6.025-13.43 13.429v44.81c0 7.405 6.025 13.43 13.43 13.43zm1.57-56.669h29.964v41.669h-29.964z"/><path d="m56.404 399.237c0 7.405 6.024 13.429 13.43 13.429h33.104c7.405 0 13.43-6.024 13.43-13.429v-44.81c0-7.405-6.024-13.429-13.43-13.429h-33.104c-7.405 0-13.43 6.024-13.43 13.429zm15-43.239h29.964v41.668h-29.964z"/><circle cx="256.706" cy="394.842" r="7.5"/><path d="m504.5 471.584h-14.034v-139.778c0-4.142-3.357-7.5-7.5-7.5-4.142 0-7.5 3.358-7.5 7.5v139.778h-112.873v-203.283c6.347-1.429 11.106-7.102 11.106-13.874v-24.032c0-6.772-4.759-12.444-11.106-13.874v-24.356h25.965c4.936 0 8.95-4.015 8.95-8.951v-17.963h15.225v17.963c0 4.936 4.015 8.951 8.95 8.951h29.608c4.936 0 8.951-4.015 8.951-8.951v-17.963h15.224v136.555c0 4.142 3.358 7.5 7.5 7.5 4.143 0 7.5-3.358 7.5-7.5v-142.604c0-4.936-4.015-8.951-8.95-8.951h-27.323c-4.936 0-8.95 4.015-8.95 8.951v17.963h-17.51v-17.963c0-4.936-4.016-8.951-8.951-8.951h-27.322c-4.936 0-8.951 4.015-8.951 8.951v17.963h-19.915v-33.017l37.83-15.016c7.627-3.027 12.555-10.285 12.555-18.49v-60.795c0-13.472-10.96-24.432-24.432-24.432h-16.521c-13.472 0-24.432 10.96-24.432 24.432v8.374h-111.963c-4.143 0-7.5 3.358-7.5 7.5s3.357 7.5 7.5 7.5h111.962v30.126h-183.185v-30.126h41.223c4.143 0 7.5-3.358 7.5-7.5s-3.357-7.5-7.5-7.5h-41.223v-8.374c0-13.472-10.96-24.432-24.432-24.432h-16.521c-13.472 0-24.432 10.96-24.432 24.432v60.794c0 8.205 4.928 15.462 12.554 18.489l37.831 15.017v33.018h-19.515v-17.963c0-4.936-4.016-8.951-8.951-8.951h-27.322c-4.936 0-8.951 4.015-8.951 8.951v17.963h-17.509v-17.963c0-4.936-4.016-8.951-8.951-8.951h-27.322c-4.935 0-8.951 4.015-8.951 8.951v211.828c0 4.142 3.357 7.5 7.5 7.5 4.142 0 7.5-3.358 7.5-7.5v-205.779h15.224v17.963c0 4.936 4.015 8.951 8.95 8.951h29.608c4.935 0 8.95-4.016 8.95-8.951v-17.963h15.225v17.963c0 4.936 4.016 8.951 8.951 8.951h25.563v24.355c-6.347 1.429-11.106 7.102-11.106 13.874v24.032c0 6.773 4.759 12.445 11.106 13.874v203.283h-112.471v-70.553c0-4.142-3.358-7.5-7.5-7.5-4.143 0-7.5 3.358-7.5 7.5v70.554h-14.436c-4.143 0-7.5 3.358-7.5 7.5s3.357 7.5 7.5 7.5h497c4.143 0 7.5-3.358 7.5-7.5s-3.357-7.5-7.5-7.5zm-351.198-217.926v-22.493h205.397v22.493zm77.538-37.494h-31.947v-49.226c0-8.808 7.166-15.974 15.974-15.974s15.974 7.166 15.974 15.974v49.226zm82.268 0h-31.948v-49.226c0-8.808 7.166-15.974 15.974-15.974 8.809 0 15.975 7.166 15.975 15.974v49.226zm84.87-105.522c0 2.018-1.212 3.803-3.089 4.548l-32.296 12.82v-55.505h35.385zm-25.954-70.226h16.521c5.2 0 9.432 4.231 9.432 9.432v7.658h-35.385v-7.658c.001-5.201 4.232-9.432 9.432-9.432zm-24.431 77.931v97.817h-19.484v-49.226c0-17.079-13.896-30.974-30.975-30.974s-30.974 13.895-30.974 30.974v49.226h-20.32v-49.226c0-17.079-13.895-30.974-30.974-30.974s-30.974 13.895-30.974 30.974v49.226h-19.484v-97.817zm-224.138-77.931h16.521c5.2 0 9.432 4.231 9.432 9.432v7.658h-35.385v-7.658c0-5.201 4.232-9.432 9.432-9.432zm-6.344 74.774c-1.876-.745-3.088-2.53-3.088-4.548v-38.137h35.385v55.504zm47.297 153.468h183.185v202.927h-33.723v-102.798c0-31.909-25.96-57.87-57.87-57.87-31.909 0-57.869 25.961-57.869 57.87v102.797h-33.723zm134.462 157.993h-85.739v-57.863c0-23.638 19.231-42.87 42.869-42.87 23.639 0 42.87 19.232 42.87 42.87zm-85.739 15h85.739v29.934h-85.739z"/></g></g></svg>